<?xml version="1.0" standalone="no"?>
<!DOCTYPE svg PUBLIC "-//W3C//DTD SVG 20010904//EN"
 "http://www.w3.org/TR/2001/REC-SVG-20010904/DTD/svg10.dtd">
<svg version="1.0" xmlns="http://www.w3.org/2000/svg"
 width="107.000000pt" height="107.000000pt" viewBox="0 0 107.000000 107.000000"
 preserveAspectRatio="xMidYMid meet">
<metadata>
Created by potrace 1.11, written by Peter Selinger 2001-2013
</metadata>
<g transform="translate(0.000000,107.000000) scale(0.100000,-0.100000)"
fill="#000000" stroke="none">
<path d="M224 1059 c-3 -5 -5 -33 -4 -62 1 -28 1 -88 1 -132 -2 -74 -3 -78
-17 -60 -13 17 -16 18 -24 5 -5 -8 -10 -12 -10 -7 0 4 -11 0 -24 -9 -24 -15
-25 -16 -9 -49 9 -19 21 -31 26 -28 6 3 7 1 3 -5 -7 -11 19 -60 39 -74 6 -5 6
-8 0 -8 -5 0 -3 -6 5 -13 13 -10 15 -55 15 -287 l0 -275 159 -2 c120 -2 163
-6 175 -16 9 -8 26 -20 39 -26 19 -10 22 -9 22 8 0 15 -5 19 -17 15 -16 -5
-16 -4 0 6 12 8 65 11 153 11 86 -1 134 2 134 9 0 5 5 9 12 7 33 -7 37 40 37
499 0 440 -1 453 -20 476 l-21 23 -334 1 c-187 1 -337 -2 -340 -7z"/>
</g>
</svg>
